<svg xmlns="http://www.w3.org/2000/svg" viewBox="0 0 249.85 192.99"><defs><style>.cls-1,.cls-2,.cls-7{fill:#3c3c3b;}.cls-1,.cls-2,.cls-3,.cls-5,.cls-6,.cls-7,.cls-8,.cls-9{stroke:#1d1d1b;stroke-miterlimit:10;}.cls-1,.cls-2,.cls-3,.cls-5,.cls-6,.cls-7,.cls-8{stroke-width:0.75px;}.cls-1{opacity:0.3;}.cls-3{fill:#fff;}.cls-4{fill:#1d1d1b;}.cls-5{fill:#be1622;}.cls-6{fill:#f9b233;}.cls-7,.cls-8,.cls-9{stroke-linecap:round;}.cls-8{fill:#f8cbe1;}.cls-9{fill:none;}</style></defs><g id="Layer_2" data-name="Layer 2"><g id="Layer_1-2" data-name="Layer 1"><path class="cls-1" d="M69.08,95.7C63.77,94.13,59.3,93,56,92.25c-7.28-1.68-9.33-1.77-11-.55-3.06,2.22-2.77,7.27-2.72,8,.45,6.23,5.84,10.28,5.29,10.83-.38.37-3-1.31-5.8-3.89-6-5.51-7.77-10.59-9.52-10.1-1.23.35-1.49,3.2-1.56,3.91-.27,3,1.06,4.89.78,5-.47.25-5.67-4.71-6.13-11.45-.17-2.56.46-3.64-.14-6.91-.14-.76-1.13-6.22-3-6.35C20.86,80.66,19.54,83,19,84.91c-1,3.72,1,6.84.73,7s-5-7-6.3-15.18A31.84,31.84,0,0,1,13,68.47c.2-2.22.6-3.65.33-3.74-.43-.14-2.24,3-3.12,6.66C9.46,74.7,9.79,77,9.27,77s-1.7-3.28-2.17-4.81C5.18,66,4.22,62.87,5.28,59.52c1.17-3.67,4-5.4,3.51-5.93s-3,.55-4.72,2.64c-2.39,3-1.6,6.73-2,6.76S-.37,56.26.7,48A37.88,37.88,0,0,1,3,39c.44-1.13,5.31-13.53,9.65-13.06,2.49.27,3.18,4.6,6.1,12.6C21.05,44.73,25.11,55.83,32.51,65c3.3,4.09,8.35,10.21,17.25,13.66a37.33,37.33,0,0,0,18.51,2Z"/><path class="cls-1" d="M63.59,97c-4.78-2.79-8.87-5-11.88-6.48-6.67-3.37-8.64-4-10.56-3.17-3.5,1.43-4.42,6.4-4.54,7.08-1.06,6.16,3.21,11.38,2.54,11.78-.45.27-2.61-2-4.7-5.16C30,94.29,29.44,88.92,27.62,89c-1.28,0-2.22,2.75-2.45,3.42-1,2.84-.14,5-.44,5.08-.52.13-4.38-5.93-3.22-12.59.45-2.52,1.31-3.42,1.52-6.74,0-.77.38-6.31-1.44-6.89-1.23-.39-3.08,1.59-4,3.3-1.85,3.38-.66,6.88-.94,6.93-.44.07-3.22-8-2.5-16.25a31.41,31.41,0,0,1,1.55-8.08c.72-2.1,1.45-3.4,1.2-3.55S14,56,12.27,59.34c-1.56,3-1.77,5.29-2.3,5.25s-.86-3.6-1-5.2c-.38-6.5-.56-9.76,1.27-12.76,2-3.28,5.15-4.3,4.83-4.92S12,41.52,9.9,43.15c-3,2.34-3.17,6.15-3.58,6.07-.56-.1-.74-7.1,2.28-14.87A37.46,37.46,0,0,1,13,26.17c.7-1,8.39-11.87,12.49-10.38,2.35.86,2,5.23,2.91,13.7.72,6.55,2,18.3,7,29,2.23,4.76,5.67,11.92,13.48,17.39a37.38,37.38,0,0,0,17.49,6.42Z"/><path class="cls-1" d="M67.13,96.49c-3-4.64-5.71-8.39-7.72-11.11-4.45-6-6-7.4-8-7.56-3.78-.3-6.82,3.74-7.23,4.29-3.7,5-2.23,11.61-3,11.67-.53,0-1.44-2.94-1.89-6.72-1-8.07,1-13.1-.69-13.86-1.17-.53-3.22,1.47-3.73,2-2.15,2.1-2.37,4.4-2.67,4.34-.52-.12-1.25-7.27,2.77-12.69,1.52-2.06,2.7-2.48,4.37-5.36.39-.66,3.18-5.47,1.8-6.8-.92-.9-3.47,0-5.07,1.15-3.16,2.2-3.67,5.86-3.95,5.77s.72-8.61,5-15.64a31.26,31.26,0,0,1,5-6.53C43.73,37.85,45,37,44.81,36.77s-3.63.81-6.69,3c-2.75,2-3.95,3.94-4.4,3.66s.84-3.6,1.47-5.07c2.58-6,3.87-9,6.85-10.84,3.27-2,6.53-1.54,6.52-2.24s-2.68-1.56-5.3-1c-3.76.73-5.59,4.08-5.93,3.83s2.53-6.69,8.7-12.28a37.92,37.92,0,0,1,7.62-5.34c1.07-.56,12.82-6.85,15.82-3.68,1.72,1.82-.57,5.57-3.54,13.56-2.29,6.17-6.4,17.26-6.73,29-.14,5.25-.26,13.19,4.27,21.58A37.31,37.31,0,0,0,76.23,84.56Z"/><path class="cls-1" d="M64.87,95.38C61.42,91,58.4,87.56,56.14,85c-5-5.56-6.63-6.8-8.7-6.77-3.78.06-6.44,4.36-6.79,5-3.21,5.36-1.12,11.77-1.9,11.91-.52.09-1.71-2.8-2.51-6.52-1.73-7.94-.28-13.13-2-13.73-1.21-.42-3.06,1.76-3.52,2.31-1.94,2.29-1.94,4.61-2.25,4.57-.53-.06-1.94-7.11,1.56-12.89,1.32-2.2,2.45-2.72,3.84-5.75.33-.7,2.65-5.74,1.16-6.94-1-.81-3.45.37-4.94,1.63C27.14,60.29,27,64,26.7,63.92s-.1-8.64,3.55-16.05a31.25,31.25,0,0,1,4.36-7C36.05,39.2,37.2,38.25,37,38s-3.54,1.15-6.37,3.67c-2.55,2.26-3.56,4.29-4,4.06s.5-3.66,1-5.19c2-6.2,3-9.3,5.8-11.43,3.06-2.34,6.35-2.15,6.28-2.85s-2.82-1.3-5.38-.54c-3.68,1.08-5.18,4.58-5.54,4.37s1.88-6.9,7.5-13a37.82,37.82,0,0,1,7.09-6c1-.67,12.11-8,15.39-5.15,1.89,1.65,0,5.59-2.24,13.82-1.69,6.36-4.75,17.79-4,29.55.35,5.24,1,13.16,6.28,21.08a37.27,37.27,0,0,0,14,12.31Z"/><path class="cls-2" d="M45.41.86c2,1.46.5,5.57-.91,14-1.09,6.5-3,18.16-1.15,29.79A48.45,48.45,0,0,0,51.6,65c2.42,3.37,8.32,11.6,15.09,10.92,2-.19,2.94-1.1,5.35-2.52,5.86-3.44,11-4.54,17.61-6,4.32-.93,11.82-.63,26.83,0C124,67.73,127,68,131.69,67c1.37-.3,1.38-.38,12.43-4.23,8.25-2.87,9.36-3.21,11.43-4.44,3.67-2.18,2.47-2.45,8.72-7.28,5.53-4.28,8-6.36,11.13-10.37A18.09,18.09,0,0,0,178.27,36c.83-2.07.73-3.14,1.39-8.58.72-5.86,1.08-6.66,1.37-7.2,1.39-2.6,3.61-3.93,5.56-5.11a23.52,23.52,0,0,1,8-2.7,28.87,28.87,0,0,1,2.95-.19c5.4-.2,9.34-.31,14,1a21.46,21.46,0,0,1,3.09,1.07c4,1.69,5.74,5.45,6.87,6.43L240,22.78c0,9.91-2.57,13.58-5.07,15-1.27.73-2.28.75-4,1.34a19.47,19.47,0,0,0-2.88,1.26,18.5,18.5,0,0,0-6,5.05,26.68,26.68,0,0,0-2.19,3.62s-.93,1.72-1.66,3.4c-2.45,5.6-3.13,13.65-3.16,14.18-.81,14.41,1.81,14.32,0,21.44-1.47,5.77-3.26,6.13-4.54,12.87-.3,1.61-1.09,6.28-2.47,6.35-.61,0-.94-.85-1.57-.74s-.87,1.45-1.65,4a46.32,46.32,0,0,1-2.72,5.77,2.06,2.06,0,0,1-1.07,1.15c-1,.36-1.87-.81-2.73-1-2.58-.54-6,7.8-10.72,16.42-3.73,6.77-4.71,7.18-5.52,10.64-.91,3.85,0,4.69.33,12.7.51,11.91-1.28,14.11,1.07,18.8,2.2,4.38,3.79,7,3.79,7A20.72,20.72,0,0,1,189.8,187a14.55,14.55,0,0,1,.58,5.52h-18c-.64-.11-.85-.33-.93-.51s0-.3,0-.65a9.65,9.65,0,0,0-.08-1,18.2,18.2,0,0,0-.32-2c-.22-1-.39-1.51-.76-2.78a23.19,23.19,0,0,0-1-3.53,12.85,12.85,0,0,0-1.64-2.31c-.67-1-1.23-2.65-.58-5.61-.22-.89-2.27-9.13-3.38-16.74-.65-4.42-1.17-9.85-1.16-10,0,0,0,0,0,0-.05-.19-.51-16.61-.67-16.57-1.09.26-.66,24-.39,26.93.44,4.76.66,7.14.68,9,.08,6.45-.94,8.43.69,11.23a18.83,18.83,0,0,0,3.37,4.1c1.19,1.09,1.86,1.44,2.48,2,1.38,1.17,2.82,3.5,2.82,8.63l-23-.42c0-1,.05-2.49.09-4.32.15-6.74.22-7,.09-8-.33-2.43-1-2.29-3.76-8.5a61.65,61.65,0,0,1-3.42-8.8,52.77,52.77,0,0,1-1.45-7c-1.27-7.89-.53-9.62-2.1-12.82-.76-1.56-.66-12.37-3.72-14.47C129.24,128,124,128,119,127.74c-1.72-.08-5.87-.36-9.31,1.44-4.3,2.25-6.67,14.57-7.82,16.75-2.73,5.14-2.67,9.74-2.57,16.78.08,5.33.16,8.07,2,10.77,2.05,2.91,4.19,2.9,6.79,5.38,2.22,2.11,4.58,5.84,5,12.94l-22.94,0a39.59,39.59,0,0,0-.51-8.75c-.67-4-1.37-4.43-2-8.25-.86-5.49.35-6.18-.73-10.38-.67-2.63-1.66-4.35-3.54-7.64-2.31-4,1.93-13.75.09-14.19-2.44-.6-10.16,9-12.65,11.07a24.35,24.35,0,0,0-7,10c-1.26,3.31-2.32,6.1-1.15,8.8.69,1.58,1.46,1.55,4,4.65a28.21,28.21,0,0,1,3.81,5.56,16.56,16.56,0,0,1,1.19,9.69l-21.53-.21c0-3.17-.08-6.86-.12-10.38,0-.62-.09-7.48-.13-11.28,0-5-.11-12.37-.13-21.95a25.84,25.84,0,0,1,.85-3c1.13-3.21,2.68-5.57,7.05-11.32,4.1-5.37,4.83-6,5.08-7.94.32-2.34-.49-3.74-1.53-6.92a63.27,63.27,0,0,1-2.52-12.81C58,97.69,60.31,91.27,60,89.37c-.23-1.38-3.58-4-9.68-9.46C44.58,74.79,43,73.77,41,74c-3.76.42-6,5-6.29,5.58-2.69,5.64,0,11.82-.76,12-.51.14-2-2.63-3.12-6.25-2.47-7.74-1.52-13-3.29-13.48-1.24-.3-2.88,2-3.29,2.63-1.71,2.47-1.49,4.78-1.8,4.77-.54,0-2.6-6.9.33-13C23.91,64,25,63.34,26.08,60.2c.26-.72,2.09-6,.49-7-1.08-.71-3.4.7-4.76,2.09C19.11,58,19.3,61.71,19,61.68s-.91-8.6,2-16.32A31.68,31.68,0,0,1,24.71,38c1.27-1.83,2.32-2.88,2.13-3.1s-3.42,1.49-6,4.26c-2.32,2.5-3.14,4.61-3.63,4.43s.14-3.7.49-5.26c1.41-6.37,2.11-9.55,4.69-11.94,2.82-2.62,6.12-2.74,6-3.42s-2.93-1-5.41,0c-3.56,1.43-4.72,5.06-5.1,4.88s1.22-7,6.23-13.69a37.47,37.47,0,0,1,6.49-6.68C31.52,6.69,41.87-1.69,45.41.86Z"/><path class="cls-3" d="M220.1,23.49a25,25,0,0,0,4.61.75c2.87.19,4,0,5,.86.71.63.44,1,1.53,3.29a14.76,14.76,0,0,0,2.07,3.4c1,1.15,3.27,3.32,4.59,2.71.2-.1.52-.33,1.12-3a37.11,37.11,0,0,0,.85-5.57c.1-1.33.11-2.43.11-3.18l-9-1-5.2-.58-4.4-.49c-.61-.73-1.09-1.33-1.42-1.74-.62-.79-.81-1-1.2-1.49A16.49,16.49,0,0,0,217.38,16,12.21,12.21,0,0,0,213.83,14a16.46,16.46,0,0,0-4.12-1,20.24,20.24,0,0,0-3.73-.15,20.61,20.61,0,0,1,3.55.7A15.57,15.57,0,0,1,213,14.87a16.39,16.39,0,0,1,2.92,2.21,14,14,0,0,1,2.54,2.54A9.8,9.8,0,0,1,220.1,23.49Z"/><path class="cls-4" d="M236.24,22.36a7.77,7.77,0,0,0,.63,1.78,3.87,3.87,0,0,0,1.45,1.91,2.69,2.69,0,0,0,1.57.34l.39-3.82Z"/><path class="cls-3" d="M170.73,185.58c.32-.74,1-1,4.3-2.1s2.92-1,5.67-1.91c3-1,4.52-1.44,5.43-.93.18.1.5.31,1.5,2a18.77,18.77,0,0,1,2.31,4.79,14.14,14.14,0,0,1,.44,5.05l-18.4-.1c-.26-1.09-.48-2-.66-2.81C170.59,186.48,170.52,186.07,170.73,185.58Z"/><path class="cls-3" d="M148.58,186.12l-.12,5.86,22.76.49a9.43,9.43,0,0,0,.15-2.15,10.16,10.16,0,0,0-.64-3.11,7.78,7.78,0,0,0-1.64-2.82,8.33,8.33,0,0,0-1.33-1.08C166.18,182.31,158.58,183.28,148.58,186.12Z"/><path class="cls-3" d="M89.94,184.58q.16,3.39.31,6.78l22.92.44a27.24,27.24,0,0,0-.53-4.17c-.64-3.22-1.14-5.7-2.81-6.86s-3.44-.59-6.73.28C97.14,182.62,92.71,183.82,89.94,184.58Z"/><path class="cls-3" d="M50.16,184.43l.09,7.59,21.56.2a18.33,18.33,0,0,0,.18-2.08,17.43,17.43,0,0,0-.38-4.37c-.49-2.17-.73-3.26-1.46-3.88-2-1.66-5.58,1-11.63,2.16A30.18,30.18,0,0,1,50.16,184.43Z"/><path class="cls-3" d="M43.58,1.56C43.27,1.19,40,3,27.12,12.55c4.45-2.29,8-4.21,10.74-5.59a14.07,14.07,0,0,0,4.52-3.5C42.74,3,43.78,1.81,43.58,1.56Z"/><path class="cls-3" d="M82.67,142.75c2.06-1.78,5.31-4.68,9.08-8.5,9.4-9.53,11.15-13.73,17-15.09,2.51-.59,1.55.35,11.36.16,6.47-.13,8.28-.56,10.43.67,4.57,2.64,5.5,9.94,5.06,10.14-.11.05-.44-.27-1.37-1.88l-5.73-.2a106.47,106.47,0,0,0-14-.24,9.08,9.08,0,0,0-4.24,1.12c-2.16,1.25-2.92,3.07-3.92,4.53-1.75,2.54-4.14,3.64-8.92,5.83A39.11,39.11,0,0,1,82.67,142.75Z"/><path class="cls-3" d="M161.83,130.74c-1.23-2.61,6.53-5.43,14.31-18.54,5.23-8.8,3.33-10.21,7.63-15.83,8.39-11,17.29-7.83,21.94-16.78,4.07-7.85-1.65-12.39,3.43-21,4-6.69,10.27-12.07,11.07-11.32.42.4-.31,2.34-.75,3.45-.82,2.1-1.6,2.63-2.4,4.88-.16.44-.34,1.16-.69,2.58a43.56,43.56,0,0,0-1.11,5.57c-.06.45-.13,1.21-.22,2.88-.25,4.61-.37,6.92,0,9.65a37.33,37.33,0,0,1,.64,6.34,27.67,27.67,0,0,1-.34,4.2c-.69,4.08-2,4.42-3.3,8.8-.56,1.83-.59,2.59-2.09,8.07-.24.84-1,3.52-2,3.52-.57,0-.92-.85-1.49-.74s-.76,1-.88,1.41c-.47,1.72-1.25,3.35-1.8,5.06-.67,2.1-1.13,3.29-2.09,4a1.85,1.85,0,0,1-1.39.47c-.4-.09-.42-.34-1-.64a2.41,2.41,0,0,0-1.64-.29,1.79,1.79,0,0,0-.85.5,9.52,9.52,0,0,0-3,4.12C192.17,125.44,164.15,135.69,161.83,130.74Z"/><path class="cls-5" d="M168.63,47.78a54.49,54.49,0,0,0,21.66,22A54,54,0,0,0,215,76.3l-.15-4.16a47.41,47.41,0,0,1-5.34-.55c-19-3.13-31.56-17.77-37.64-26.36Z"/><ellipse class="cls-6" cx="213.1" cy="77.95" rx="2.45" ry="3.9" transform="translate(-13.72 71.77) rotate(-18.53)"/><path class="cls-7" d="M229.57,39.66a5.26,5.26,0,0,1-2.88.09,5.43,5.43,0,0,1-1.82-.85"/><path class="cls-2" d="M174.88,27.71c.64-3.69,4.25-5.71,8.74-8.22s10.53-5.9,13.25-3.75c.86.68,1.6,2-1.66,18.14-1.82,9-2.44,10.48-3.92,11.09-4.74,2-12.28-7.75-12.64-8.23C176.46,33.88,174.3,31,174.88,27.71Z"/><path class="cls-8" d="M238.25,35.29c1.73.09,3.63.47,4.45,1.79,1,1.6-.43,3.23.65,5,.87,1.4,3.06,2.42,4.59,1.66s1.69-2.93,1.44-4.22a6.11,6.11,0,0,0-2.75-3.57,10.6,10.6,0,0,0-5.37-2,11.45,11.45,0,0,0-2.36,0Z"/><path class="cls-9" d="M215.38,24.38a2.76,2.76,0,0,0-5.25,0"/></g></g></svg>