<svg xmlns="http://www.w3.org/2000/svg" viewBox="0 0 159.4 205.73"><defs><style>.cls-1,.cls-2{fill:#3c3c3b;}.cls-1,.cls-10,.cls-2,.cls-3,.cls-4,.cls-5,.cls-6,.cls-7,.cls-8,.cls-9{stroke:#1d1d1b;stroke-miterlimit:10;}.cls-1,.cls-2,.cls-3,.cls-4,.cls-5,.cls-6,.cls-7,.cls-8,.cls-9{stroke-width:0.75px;}.cls-1{opacity:0.3;}.cls-3{fill:#fff;}.cls-4{fill:#f8cbe1;}.cls-10,.cls-4{stroke-linecap:round;}.cls-10,.cls-5{fill:none;}.cls-6{fill:#f6f6f6;}.cls-7{fill:#1d1d1b;}.cls-8{fill:#be1622;}.cls-9{fill:#f39200;}</style></defs><g id="Layer_2" data-name="Layer 2"><g id="Layer_1-2" data-name="Layer 1"><path class="cls-1" d="M84.13,187.37c5.49-.74,10.09-1.16,13.46-1.41,7.45-.55,9.49-.32,11,1.14,2.69,2.67,1.63,7.61,1.47,8.28-1.39,6.09-7.34,9.26-6.88,9.89.32.43,3.18-.83,6.33-3,6.75-4.54,9.3-9.28,11-8.52,1.17.53,1,3.39.94,4.1-.18,3-1.79,4.67-1.54,4.86.43.32,6.33-3.79,7.81-10.38.56-2.5.11-3.66,1.2-6.81.25-.73,2.07-6,4-5.8,1.28.11,2.23,2.65,2.43,4.59.41,3.83-2,6.61-1.79,6.76s6.06-6.17,8.56-14a31.88,31.88,0,0,0,1.68-8.05c.14-2.22,0-3.7.26-3.74.44-.08,1.75,3.28,2.05,7.06.27,3.39-.4,5.56.1,5.72s2.18-3,2.88-4.43c2.85-5.86,4.28-8.79,3.74-12.26-.59-3.81-3.1-5.95-2.56-6.4s2.93,1,4.26,3.33c1.9,3.33.56,6.9,1,7S158.8,159,159,150.7a37.81,37.81,0,0,0-.93-9.26c-.27-1.18-3.18-14.18-7.54-14.39-2.5-.11-3.85,4.07-8,11.53-3.18,5.76-8.89,16.12-17.61,24-3.88,3.54-9.82,8.82-19.13,10.86a37.3,37.3,0,0,1-18.61-.8Q85.69,180,84.13,187.37Z"/><path class="cls-1" d="M89.36,189.51c5.16-2,9.52-3.53,12.73-4.58,7.11-2.32,9.15-2.58,10.92-1.52,3.25,2,3.4,7,3.41,7.69.1,6.25-4.91,10.75-4.31,11.25.4.34,2.88-1.56,5.43-4.38,5.47-6,6.81-11.23,8.6-10.89,1.26.24,1.77,3,1.89,3.76.54,2.95-.62,5-.33,5.08.49.21,5.23-5.19,5.1-11.94-.05-2.56-.77-3.59-.47-6.9.08-.77.59-6.3,2.48-6.59,1.27-.2,2.8,2,3.46,3.88,1.31,3.62-.4,6.9-.12,7s4.41-7.44,4.95-15.68a31.93,31.93,0,0,0-.29-8.21c-.39-2.2-.92-3.59-.65-3.7s2.49,2.76,3.69,6.36c1.07,3.23.93,5.5,1.46,5.54s1.4-3.42,1.74-5c1.36-6.38,2-9.56.7-12.81-1.49-3.55-4.43-5-4-5.6s3.09.29,4.93,2.22c2.64,2.78,2.19,6.56,2.61,6.55s1.82-6.91,0-15a38.14,38.14,0,0,0-3.12-8.77c-.54-1.08-6.48-13-10.76-12.16-2.45.48-2.76,4.86-5,13.09-1.71,6.36-4.78,17.78-11.35,27.57-2.92,4.36-7.42,10.91-16,15.12a37.36,37.36,0,0,1-18.26,3.67Q89.12,182,89.36,189.51Z"/><path class="cls-1" d="M86,188.45c3.69-4.12,6.92-7.42,9.33-9.8,5.31-5.25,7-6.4,9.08-6.25,3.77.29,6.17,4.74,6.49,5.35,2.89,5.54.42,11.81,1.18,12,.52.13,1.87-2.69,2.9-6.35,2.19-7.82,1.06-13.09,2.8-13.59,1.24-.35,3,1.94,3.38,2.51,1.81,2.41,1.67,4.72,2,4.7.54,0,2.35-7-.79-13-1.19-2.27-2.29-2.86-3.5-6-.28-.72-2.3-5.89-.74-7,1-.75,3.42.57,4.83,1.91,2.79,2.66,2.74,6.35,3,6.31.44-.06.61-8.62-2.6-16.23a31.63,31.63,0,0,0-3.93-7.22c-1.34-1.78-2.43-2.79-2.24-3s3.47,1.36,6.14,4c2.41,2.41,3.3,4.5,3.79,4.3s-.28-3.69-.68-5.24c-1.63-6.31-2.45-9.47-5.11-11.76-2.92-2.52-6.22-2.52-6.1-3.21s2.89-1.13,5.4-.23c3.61,1.3,4.9,4.89,5.27,4.69s-1.47-7-6.71-13.46a37.31,37.31,0,0,0-6.72-6.44c-1-.73-11.62-8.73-15.06-6.06-2,1.54-.3,5.59,1.41,13.94,1.32,6.45,3.69,18,2.21,29.72-.66,5.22-1.75,13.08-7.51,20.68a37.43,37.43,0,0,1-14.69,11.46Z"/><path class="cls-1" d="M88.35,187.69c4.07-3.75,7.59-6.73,10.21-8.87,5.79-4.73,7.59-5.72,9.63-5.37,3.73.64,5.7,5.3,6,5.94,2.35,5.78-.7,11.8,0,12.05.51.17,2.12-2.5,3.49-6.05,2.92-7.59,2.28-12.94,4.07-13.27,1.26-.23,2.76,2.22,3.13,2.82,1.57,2.57,1.21,4.86,1.53,4.87.53,0,3-6.74.43-13-1-2.36-2-3.06-2.93-6.26-.21-.74-1.73-6.08-.07-7,1.12-.64,3.35.9,4.63,2.37,2.53,2.9,2.12,6.58,2.41,6.56.44,0,1.42-8.53-1-16.41a32,32,0,0,0-3.24-7.55c-1.16-1.9-2.15-3-1.94-3.22s3.32,1.68,5.73,4.6c2.17,2.63,2.86,4.79,3.37,4.64s.07-3.7-.18-5.28c-1-6.44-1.55-9.66-4-12.19-2.67-2.78-6-3.1-5.78-3.77s3-.86,5.4.28c3.47,1.63,4.42,5.33,4.81,5.16s-.81-7.1-5.42-14a37.47,37.47,0,0,0-6.08-7.05c-.89-.81-10.74-9.78-14.42-7.45-2.12,1.35-.82,5.54.09,14,.71,6.55,2,18.3-.6,29.81-1.15,5.12-3,12.85-9.43,19.87a37.32,37.32,0,0,1-15.7,10Q85.4,180.79,88.35,187.69Z"/><path class="cls-2" d="M87.26,182.8c4.79-2.79,8.87-5,11.88-6.48,6.67-3.37,8.64-3.95,10.56-3.17,3.51,1.43,4.43,6.4,4.54,7.08,1.06,6.16-3.21,11.38-2.54,11.78.46.27,2.61-2,4.71-5.16,4.47-6.78,5-12.15,6.82-12.08,1.28,0,2.22,2.75,2.45,3.42,1,2.84.15,5,.45,5.08.52.13,4.37-5.93,3.21-12.59-.44-2.52-1.31-3.42-1.51-6.74,0-.77-.39-6.31,1.43-6.89,1.23-.39,3.08,1.59,4,3.3,1.85,3.38.66,6.88.95,6.93s3.21-8,2.49-16.25a31.77,31.77,0,0,0-1.54-8.08c-.73-2.1-1.46-3.4-1.21-3.55s2.88,2.35,4.61,5.72c1.56,3,1.77,5.29,2.3,5.25s.86-3.6,1-5.2c.38-6.5.57-9.76-1.27-12.76-2-3.28-5.15-4.3-4.83-4.92s3.11-.19,5.22,1.44c3,2.34,3.17,6.15,3.58,6.07.56-.1.74-7.1-2.27-14.87a37.44,37.44,0,0,0-4.43-8.18c-.7-1-8.39-11.87-12.49-10.38-2.35.86-2,5.23-2.91,13.7-.72,6.55-2,18.3-7,29-2.22,4.76-5.67,11.92-13.48,17.39a37.35,37.35,0,0,1-17.49,6.42Z"/><path class="cls-3" d="M127.21,103.67c.38-.29,3.13,2.26,13.41,14.55-3.78-3.28-6.83-6-9.13-8a14.44,14.44,0,0,1-3.57-4.47C127.68,105.3,127,103.86,127.21,103.67Z"/><path class="cls-2" d="M61.61,1.79A19.59,19.59,0,0,1,72.07.68c3,.6,4.16,1.81,4.51,2.21A6.43,6.43,0,0,1,78,5.63Z"/><path class="cls-4" d="M93.47,35.43c1.57.08,3.3.45,4,1.69.9,1.5-.39,3,.59,4.68.8,1.32,2.79,2.28,4.18,1.57s1.54-2.76,1.31-4A5.76,5.76,0,0,0,101.09,36a9.38,9.38,0,0,0-4.88-1.92,10.86,10.86,0,0,0-2.15,0Z"/><path class="cls-2" d="M51.49,1.81c-10,2.4-15.06,15.73-15,20.31a18.87,18.87,0,0,1-.07,3,55.81,55.81,0,0,1-1.21,5.83,54.71,54.71,0,0,1-4.35,12.17C28.26,48.23,27.2,48,22.33,56c-3,5-5,9-4.57,9.23s1.57-1.49,1.89-1.29-1.34,3.09-3,7.23a32.57,32.57,0,0,0-2,6.2c-1,4.91-.15,9,.19,9S15,85,16,83.36c.5-.78,1.41-1.87,1.83-1.69s.19,1.75-.06,3c-1.23,6.19-2.92,8.18-3.53,12.07-.71,4.57.57,8.5.88,8.49s.15-3.18.69-3.25,1.33,2.44,1.67,4.53c.74,4.58-.78,8.39-1.69,10.71-2.42,6.19-2.23,6-2.56,7.25a116.37,116.37,0,0,1-4.15,11.42c-3,7.4-3.28,14.28-2.78,14.41.23.07.63-1.46,1.24-1.42s1.25,2.3,1.2,4.22A10.4,10.4,0,0,1,8,156.48c-1.27,3.39-2.47,3.8-3.9,7.09C3,166,2.62,168.18,3,168.36s.71-.94,1.78-1.15a2.7,2.7,0,0,1,2.83,1.6c.35,1.07-.48,2.21-.86,2.76-2.83,4-5.37,9.42-6.11,13.5-.5,2.74-.2,5,.15,5s.44-1.37,1.42-1.69a2.32,2.32,0,0,1,2.47,1.24,3,3,0,0,1,.17,1.63,9.52,9.52,0,0,1-.86,3c-.59,2.18,2.16,5.38,5,6.8,2.54,1.27,4.84,1,7.4.77,4.81-.34,9.64.5,14.46.43,16-.21,13.48.18,28.73-.17,8.57-.19,19.37-.54,31.92-1.2a5.22,5.22,0,0,0,1.81-2.67c.65-2.51-1.28-4.61-2.61-7.2-1.22-2.39-1.47-5.3-2-11.14-.65-7.65.57-9-1-13.36-1.26-3.51-2-2.53-3.46-6.44-1.7-4.63-1-7.18-3.47-11.76a16.4,16.4,0,0,1-1.48-2.72c-.33-1-.9-3.39,1-9.16.86-2.63,1.27-3,1.86-4.7,2-5.78-.65-7.51.24-15,.64-5.3,2.17-6.12,1.86-10.9-.14-2.12-.51-3.06-.25-5.19.44-3.56,1.91-4.46,2.85-7.55.7-2.31.38-4.92-.25-10.15-.38-3.11-.64-3.48-1.73-10.4-.38-2.42-.38-2.64-.74-4.95a79.92,79.92,0,0,0-1.58-8.6c-1.5-4.64-3.07-4.41-3.86-8.46-.35-1.74-.92-4.65.73-7a8.1,8.1,0,0,1,3.72-2.68,10.29,10.29,0,0,1,4-.72c4.49-.13,7.89-5.31,11.4-10.65,2.23-3.39,4.07-6.2,3-7.81C101,20.79,99.85,21,95,20.4c-7.37-.84-8.83-1.7-9.63-2.84-.06-.1,0,0-1.19-3.24-1.42-3.89-1.73-4.63-2.42-5.51a9.9,9.9,0,0,0-2.95-2.48c-1.54-.93-2.39-1-6.36-1.95s-3.7-1.07-7-1.8c-2.38-.54-3.57-.81-4.89-1A28.39,28.39,0,0,0,51.49,1.81Z"/><path class="cls-5" d="M17.33,112.24a97.8,97.8,0,0,0,2.25,10.68c1.44,5.38,3.05,11.48,6.81,18.15,4.32,7.7,7.11,8.73,8.93,15.46A69.54,69.54,0,0,1,36.74,164c.46,3.15.63,5.49,1,11.34.22,3.65.46,7.84.71,12.48a27.23,27.23,0,0,0-3.58,6.79,27.63,27.63,0,0,0-1.59,7.6c8.08.24,14.61-.41,22.69-.18a15.17,15.17,0,0,0,.39-7.1c-.46-2.39-1.41-3.82-1.92-7.47a29.49,29.49,0,0,1-.25-3.18c-.43-8.3-.43-13.33-.43-13.33,0-5.16.1-8,.28-13.33.23-6.47.41-8.48,1.71-10.77a14.46,14.46,0,0,1,5.81-5.53c.12,3.37.27,7.59.42,12.47.23,7,.17,6.14.43,14.18.17,5.44-.14,10.9.42,16.31a22.55,22.55,0,0,1,0,5.81c-.25,1.94-.62,2.65-1,4.68a35.58,35.58,0,0,0-.68,7.26c8.56-.09,15.49-.81,24-.91a24.37,24.37,0,0,0-1.3-6.8,37.39,37.39,0,0,0-2.66-5.7c-.92-1.76-1.77-3.19-2.38-4.2-.38-7.08-.37-12.79-.29-16.73.06-2.88.13-4.6.29-10.64.13-5.19.21-9.43.26-12.21"/><path class="cls-6" d="M96.21,33.14a10.73,10.73,0,0,1-3.74-1.94,9.24,9.24,0,0,1-3-3.85c-.47-1.22-.52-2.3-1.6-3.47a7.23,7.23,0,0,0-.94-.81c-2.15-1.74-2.63-1.84-3.65-2.75a8.63,8.63,0,0,1-2.38-3.06c-.51-1.18-.28-1.78-.64-2.89a12.17,12.17,0,0,0-2.89-4.64C74.13,6.35,69.8,6.1,69.87,5.82s3.36-.06,6.6,1.71a10.8,10.8,0,0,1,3.77,3.07,12.6,12.6,0,0,1,1.93,4c.33,1.27.38,2.46,1.39,3.33a4,4,0,0,0,1,.61,8.32,8.32,0,0,0,2.85.76c2.09.28,1.4.32,3.67.62.46.06.68.12,4.29.45.32,0,1.4.18,3.54.49,1.46.21,2.19.32,2.58.88a2.49,2.49,0,0,1,.22,1.86,7.86,7.86,0,0,1-1.28,3.21c-.83,1.36-1.4,2.18-2.29,3.49C97.39,31.32,96.75,32.29,96.21,33.14Z"/><path class="cls-7" d="M95.45,20.72a3.88,3.88,0,0,0-2.25,1.94,2.57,2.57,0,0,0-.27,2c.4,1,1.46.76,3.82,1.91,1.78.87,2,1.41,2.71,1.22s1.1-1.22,1.94-3.32c.49-1.2.6-1.76.38-2.32a2.11,2.11,0,0,0-.93-1Z"/><path class="cls-3" d="M60,52.06c5.43-4.28,7-9,9.85-8.4.81.18,1.8.8,3.65,4.75a50.66,50.66,0,0,1,4,13.5c1.87,10.51,2.61,8.54,3.28,14.6.61,5.46,1.35,12.14-1.09,19.71-2.08,6.44-4.52,7.49-4.75,13.14-.19,4.84,1.52,6.25.37,9.85-1.29,4-3.94,3.65-7.67,8.76-4.32,5.93-3.57,10.27-6.5,11.05s-6.38-3-7.73-4.48c-5.29-5.88-3.53-10.38-8-19.71-4.14-8.59-6.34-7.4-7.66-13.14-1.65-7.16.53-14.37,1.82-18.61,1.68-5.53,3-6.42,3.65-11.31.9-6.69-1.16-7.88.37-10.95C46.13,55.72,52.19,58.22,60,52.06Z"/><path class="cls-3" d="M61.55,141.36A13.64,13.64,0,0,0,58,143.94a13.84,13.84,0,0,0-3.13,4.9c-.38,3.43-.6,6.29-.74,8.35-.67,10.12.12,10.6-.18,22.51a27,27,0,0,0,.46,7.8c.31,1.29.79,2.71,1.53,5.9a21.27,21.27,0,0,1,.63,3.58,14.38,14.38,0,0,1-.63,5.09h5.19c0-.8,0-1.84.09-3.06,0-.27.12-1.38.37-2.9s.36-1.7.74-3.6c.33-1.66.5-2.5.57-3.27a23.34,23.34,0,0,0,0-4.35c-.12-1.74-.24-1.89-.36-3.61-.09-1.19-.09-2.05-.09-3.76,0-3,0-4.73,0-6s0-4.13-.1-7.42-.21-3.2-.34-7c0-.92-.08-2.7-.16-6.28-.07-2.61-.09-3.88-.16-5.91C61.64,143.39,61.59,142.16,61.55,141.36Z"/><path class="cls-3" d="M38.44,187.86a27.55,27.55,0,0,0-4.92,12c-.14,1-.21,1.77-.25,2.34L56,202.07a15,15,0,0,0,.53-2.64,15.42,15.42,0,0,0-.12-4.13c-1.29-.76-2.66-1.52-4.11-2.25A69.49,69.49,0,0,0,38.44,187.86Z"/><path class="cls-3" d="M62.06,193.9a32.17,32.17,0,0,0-.82,5.11c-.08,1.09-.1,2.11-.09,3.06l24-.91a22.18,22.18,0,0,0-.29-2.73A26,26,0,0,0,83,192.22a13.21,13.21,0,0,0-1.35-2.69C78.63,185.78,63.42,193.23,62.06,193.9Z"/><path class="cls-8" d="M30.89,43.09A63.05,63.05,0,0,0,60.29,54a61.69,61.69,0,0,0,19.1-1.09L81,55.63A47.57,47.57,0,0,1,76,57c-19.46,4.21-37.17-4.64-46.9-10.8Z"/><circle class="cls-9" cx="70.3" cy="58.96" r="2.76"/><path class="cls-10" d="M75.69,20.39a2.77,2.77,0,0,0-5.26,0"/><path class="cls-2" d="M33.88,18c.41-3.73,3.89-6,8.21-8.75s10.14-6.54,13-4.57c.9.62,1.73,1.95-.52,18.21-1.26,9.07-1.79,10.61-3.23,11.31-4.6,2.26-12.73-7-13.13-7.42C35.85,24,33.51,21.34,33.88,18Z"/></g></g></svg>