<svg xmlns="http://www.w3.org/2000/svg" viewBox="0 0 223.8 192.99"><defs><style>.cls-1,.cls-5{fill:#fff;}.cls-1,.cls-2,.cls-4,.cls-5,.cls-6,.cls-7,.cls-8{stroke:#1d1d1b;stroke-miterlimit:10;}.cls-1,.cls-2,.cls-6,.cls-7,.cls-8{stroke-width:0.75px;}.cls-2,.cls-8{fill:#3c3c3b;}.cls-3{fill:#1d1d1b;}.cls-4{fill:#936037;stroke-width:0.5px;}.cls-5{stroke-width:0.25px;}.cls-6{fill:#be1622;}.cls-7{fill:#f9b233;}.cls-8{stroke-linecap:round;}</style></defs><g id="Layer_2" data-name="Layer 2"><g id="Layer_1-2" data-name="Layer 1"><path class="cls-1" d="M132,186.12l-.12,5.86,22.76.49a9.43,9.43,0,0,0,.15-2.15,9.86,9.86,0,0,0-.64-3.11,7.64,7.64,0,0,0-1.64-2.82,8,8,0,0,0-1.32-1.08C149.59,182.31,142,183.28,132,186.12Z"/><path class="cls-2" d="M28.82.86c2,1.46.49,5.57-.92,14-1.09,6.5-3,18.16-1.15,29.79A48.45,48.45,0,0,0,35,65c2.42,3.37,8.32,11.6,15.09,10.92,2-.19,2.94-1.1,5.36-2.52,5.85-3.44,11-4.54,17.6-6,4.32-.93,11.83-.63,26.83,0,7.55.29,10.48.57,15.21-.47,1.37-.3,1.38-.38,12.44-4.23,8.24-2.87,9.35-3.21,11.42-4.44,3.68-2.18,2.47-2.45,8.73-7.28,5.53-4.28,8-6.36,11.13-10.37A18.26,18.26,0,0,0,161.67,36c.83-2.07.73-3.14,1.39-8.58.72-5.86,1.08-6.66,1.37-7.2,1.4-2.6,3.61-3.93,5.57-5.11a23.42,23.42,0,0,1,8-2.7,28.44,28.44,0,0,1,2.95-.19c5.39-.2,9.33-.31,14,1A21.46,21.46,0,0,1,198,14.28c4,1.69,5.74,5.45,6.87,6.43l18.56,2.07c0,9.91-2.57,13.58-5.07,15-1.27.73-2.27.75-4,1.34a19.94,19.94,0,0,0-2.88,1.26,18.62,18.62,0,0,0-6,5.05,26.68,26.68,0,0,0-2.19,3.62s-.93,1.72-1.66,3.4c-2.45,5.6-3.13,13.65-3.16,14.18-.8,14.41,1.81,14.32,0,21.44-1.47,5.77-3.26,6.13-4.54,12.87-.3,1.61-1.09,6.28-2.47,6.35-.61,0-.94-.85-1.57-.74s-.87,1.45-1.65,4a44.82,44.82,0,0,1-2.72,5.77,2.06,2.06,0,0,1-1.07,1.15c-1,.36-1.87-.81-2.72-1-2.58-.54-6,7.8-10.72,16.42-3.74,6.77-4.72,7.18-5.53,10.64-.91,3.85,0,4.69.33,12.7.51,11.91-1.28,14.11,1.07,18.8,2.2,4.38,3.8,7,3.8,7A20.66,20.66,0,0,1,173.2,187a14.35,14.35,0,0,1,.58,5.52h-18c-.63-.11-.85-.33-.93-.51s0-.3,0-.65a9.65,9.65,0,0,0-.08-1,18.2,18.2,0,0,0-.32-2c-.22-1-.39-1.51-.76-2.78a23.85,23.85,0,0,0-1-3.53,13.36,13.36,0,0,0-1.65-2.31c-.67-1-1.23-2.65-.58-5.61-.22-.89-2.26-9.13-3.38-16.74-.65-4.42-1.17-9.85-1.15-10a0,0,0,0,0,0,0c0-.19-.5-16.61-.67-16.57-1.09.26-.66,24-.39,26.93.44,4.76.66,7.14.69,9,.07,6.45-.95,8.43.68,11.23a19.14,19.14,0,0,0,3.37,4.1c1.19,1.09,1.86,1.44,2.48,2,1.38,1.17,2.82,3.5,2.82,8.63l-23-.42c0-1,0-2.49.08-4.32.15-6.74.23-7,.09-8-.33-2.43-1-2.29-3.76-8.5a61.65,61.65,0,0,1-3.42-8.8,54.42,54.42,0,0,1-1.45-7c-1.27-7.89-.52-9.62-2.09-12.82-.77-1.56-.67-12.37-3.73-14.47-4.94-.25-10.2-.25-15.15-.51-1.72-.08-5.87-.36-9.31,1.44-4.3,2.25-6.67,14.57-7.82,16.75-2.73,5.14-2.67,9.74-2.56,16.78.07,5.33.15,8.07,2.05,10.77,2,2.91,4.18,2.9,6.79,5.38,2.21,2.11,4.57,5.84,5,12.94l-22.93,0a40.34,40.34,0,0,0-.52-8.75c-.67-4-1.37-4.43-2-8.25-.85-5.49.35-6.18-.73-10.38-.67-2.63-1.66-4.35-3.54-7.64-2.31-4,1.93-13.75.09-14.19-2.44-.6-10.16,9-12.65,11.07a24.35,24.35,0,0,0-7,10c-1.26,3.31-2.32,6.1-1.15,8.8.69,1.58,1.46,1.55,4,4.65a27.79,27.79,0,0,1,3.8,5.56,16.56,16.56,0,0,1,1.19,9.69l-21.52-.21c0-3.17-.09-6.86-.13-10.38,0-.62-.09-7.48-.13-11.28,0-5-.11-12.37-.13-21.95a24.39,24.39,0,0,1,.86-3c1.12-3.21,2.67-5.57,7-11.32,4.1-5.37,4.84-6,5.09-7.94.31-2.34-.5-3.74-1.54-6.92a63.27,63.27,0,0,1-2.52-12.81c-.76-8.9,1.51-15.32,1.2-17.22-.23-1.38-3.58-4-9.68-9.46C28,74.79,26.41,73.77,24.42,74c-3.76.42-6,5-6.29,5.58-2.69,5.64,0,11.82-.75,12-.51.14-2-2.63-3.13-6.25-2.47-7.74-1.52-13-3.29-13.48-1.24-.3-2.88,2-3.28,2.63C6,77,6.18,79.28,5.87,79.27c-.54,0-2.6-6.9.33-13C7.31,64,8.39,63.34,9.49,60.2c.25-.72,2.08-6,.48-7-1.07-.71-3.39.7-4.76,2.09C2.51,58,2.7,61.71,2.42,61.68c-.44,0-.92-8.6,2-16.32A31.2,31.2,0,0,1,8.11,38c1.27-1.83,2.32-2.88,2.13-3.1s-3.42,1.49-6,4.26C1.92,41.67,1.11,43.78.61,43.6s.15-3.7.49-5.26C2.51,32,3.21,28.79,5.79,26.4c2.82-2.62,6.12-2.74,6-3.42s-2.93-1-5.4,0C2.81,24.37,1.64,28,1.27,27.82s1.22-7,6.23-13.69A37.46,37.46,0,0,1,14,7.45C14.92,6.69,25.28-1.69,28.82.86Z"/><path class="cls-1" d="M203.5,23.49a25.11,25.11,0,0,0,4.62.75c2.86.19,4,0,5,.86.71.63.44,1,1.53,3.29a15.12,15.12,0,0,0,2.07,3.4c1,1.15,3.27,3.32,4.59,2.71.2-.1.52-.33,1.12-3a37.73,37.73,0,0,0,.86-5.57c.09-1.33.1-2.43.1-3.18l-9-1-5.19-.58-4.41-.49c-.61-.73-1.09-1.33-1.42-1.74-.62-.79-.81-1-1.2-1.49A16.49,16.49,0,0,0,200.78,16,12.21,12.21,0,0,0,197.23,14a16.4,16.4,0,0,0-4.11-1,20.26,20.26,0,0,0-3.73-.15,20.52,20.52,0,0,1,3.54.7,15.38,15.38,0,0,1,3.45,1.39,16.81,16.81,0,0,1,2.93,2.21,14.32,14.32,0,0,1,2.54,2.54A10,10,0,0,1,203.5,23.49Z"/><path class="cls-3" d="M219.64,22.36a8.29,8.29,0,0,0,.63,1.78,3.87,3.87,0,0,0,1.45,1.91,2.72,2.72,0,0,0,1.58.34c.13-1.27.25-2.54.38-3.82Z"/><circle class="cls-4" cx="195.75" cy="25.5" r="2.68"/><circle class="cls-3" cx="196.51" cy="25.65" r="1.63"/><circle class="cls-5" cx="195.25" cy="24.93" r="0.82"/><path class="cls-1" d="M154.13,185.58c.32-.74,1-1,4.3-2.1s2.93-1,5.67-1.91c3-1,4.52-1.44,5.43-.93.18.1.5.31,1.5,2a18.77,18.77,0,0,1,2.31,4.79,14.14,14.14,0,0,1,.44,5.05l-18.39-.1c-.26-1.09-.49-2-.67-2.81C154,186.48,153.92,186.07,154.13,185.58Z"/><path class="cls-1" d="M73.35,184.58q.15,3.39.31,6.78l22.91.44a28.32,28.32,0,0,0-.52-4.17c-.65-3.22-1.15-5.7-2.82-6.86s-3.44-.59-6.72.28C80.54,182.62,76.11,183.82,73.35,184.58Z"/><path class="cls-1" d="M33.56,184.43l.09,7.59,21.56.2a16.26,16.26,0,0,0,.18-2.08,16.5,16.5,0,0,0-.38-4.37c-.49-2.17-.73-3.26-1.46-3.88-2-1.66-5.58,1-11.63,2.16A30.17,30.17,0,0,1,33.56,184.43Z"/><path class="cls-1" d="M27,1.56c-.3-.37-3.57,1.46-16.46,11C15,10.26,18.56,8.34,21.26,7a14.07,14.07,0,0,0,4.52-3.5C26.14,3,27.18,1.81,27,1.56Z"/><path class="cls-1" d="M66.08,142.75c2-1.78,5.3-4.68,9.07-8.5,9.4-9.53,11.15-13.73,16.95-15.09,2.51-.59,1.55.35,11.36.16,6.47-.13,8.28-.56,10.43.67,4.57,2.64,5.51,9.94,5.06,10.14-.11.05-.44-.27-1.37-1.88l-5.73-.2a106.47,106.47,0,0,0-14-.24,9.13,9.13,0,0,0-4.24,1.12c-2.16,1.25-2.91,3.07-3.91,4.53-1.75,2.54-4.15,3.64-8.93,5.83A39.07,39.07,0,0,1,66.08,142.75Z"/><path class="cls-1" d="M145.23,130.74c-1.22-2.61,6.53-5.43,14.32-18.54,5.22-8.8,3.32-10.21,7.63-15.83,8.38-11,17.29-7.83,21.93-16.78,4.07-7.85-1.65-12.39,3.43-21,4-6.69,10.28-12.07,11.07-11.32.42.4-.31,2.34-.75,3.45-.82,2.1-1.6,2.63-2.4,4.88-.16.44-.34,1.16-.69,2.58a45.36,45.36,0,0,0-1.11,5.57c0,.45-.13,1.21-.22,2.88-.25,4.61-.37,6.92,0,9.65a37.33,37.33,0,0,1,.64,6.34,26.39,26.39,0,0,1-.34,4.2c-.69,4.08-2,4.42-3.3,8.8-.56,1.83-.59,2.59-2.09,8.07-.23.84-1,3.52-2,3.52-.57,0-.92-.85-1.48-.74s-.77,1-.88,1.41c-.48,1.72-1.26,3.35-1.8,5.06-.67,2.1-1.14,3.29-2.1,4a1.84,1.84,0,0,1-1.39.47c-.4-.09-.42-.34-1-.64a2.41,2.41,0,0,0-1.64-.29,1.9,1.9,0,0,0-.85.5,9.52,9.52,0,0,0-3,4.12C175.57,125.44,147.55,135.69,145.23,130.74Z"/><path class="cls-6" d="M152,47.78A53.56,53.56,0,0,0,198.43,76.3l-.15-4.16a47.41,47.41,0,0,1-5.34-.55c-19-3.13-31.55-17.77-37.64-26.36Z"/><ellipse class="cls-7" cx="196.51" cy="77.95" rx="2.45" ry="3.9" transform="translate(-14.59 66.49) rotate(-18.53)"/><path class="cls-8" d="M213,39.66a5.26,5.26,0,0,1-2.88.09,5.43,5.43,0,0,1-1.82-.85"/><path class="cls-2" d="M158.28,27.71c.65-3.69,4.25-5.71,8.74-8.22s10.54-5.9,13.26-3.75c.86.68,1.6,2-1.67,18.14-1.82,9-2.44,10.48-3.92,11.09-4.73,2-12.27-7.75-12.64-8.23C159.87,33.88,157.7,31,158.28,27.71Z"/><path class="cls-1" d="M132,186.12l-.12,5.86,22.76.49a9.43,9.43,0,0,0,.15-2.15,9.86,9.86,0,0,0-.64-3.11,7.64,7.64,0,0,0-1.64-2.82,8,8,0,0,0-1.32-1.08C149.59,182.31,142,183.28,132,186.12Z"/></g></g></svg>