<svg xmlns="http://www.w3.org/2000/svg" viewBox="0 0 145.23 209.34"><defs><style>.cls-1{fill:#3c3c3b;}.cls-1,.cls-2,.cls-3,.cls-4,.cls-5,.cls-6,.cls-7,.cls-8,.cls-9{stroke:#1d1d1b;stroke-miterlimit:10;}.cls-1,.cls-2,.cls-3,.cls-4,.cls-5,.cls-7,.cls-9{stroke-width:0.75px;}.cls-2{fill:#fff;}.cls-3,.cls-7,.cls-8{fill:none;}.cls-4{fill:#be1622;}.cls-5{fill:#f39200;}.cls-6{fill:#1d1d1b;stroke-width:0.5px;}.cls-7,.cls-8,.cls-9{stroke-linecap:round;}.cls-9{fill:#f8cbe1;}</style></defs><g id="Layer_2" data-name="Layer 2"><g id="Layer_1-2" data-name="Layer 1"><path class="cls-1" d="M87.26,189.46c4.79-2.79,8.87-4.94,11.88-6.47,6.67-3.38,8.64-4,10.56-3.17,3.51,1.42,4.43,6.39,4.54,7.07,1.06,6.16-3.21,11.38-2.54,11.78.46.28,2.61-2,4.71-5.16,4.47-6.78,5-12.14,6.82-12.08,1.28,0,2.22,2.75,2.45,3.43,1,2.84.15,5,.45,5.07.52.14,4.37-5.93,3.21-12.58-.44-2.52-1.31-3.42-1.51-6.75,0-.77-.39-6.31,1.43-6.89,1.23-.39,3.08,1.6,4,3.31,1.85,3.37.66,6.88.95,6.92s3.21-8,2.49-16.25a31.63,31.63,0,0,0-1.54-8.07c-.73-2.11-1.46-3.4-1.21-3.56s2.88,2.35,4.61,5.73c1.56,3,1.77,5.29,2.3,5.24s.86-3.59,1-5.19c.38-6.51.57-9.76-1.27-12.76-2-3.29-5.15-4.3-4.83-4.92s3.11-.2,5.22,1.43c3,2.34,3.17,6.15,3.58,6.08.56-.1.74-7.11-2.27-14.87a37.54,37.54,0,0,0-4.43-8.19c-.7-1-8.39-11.87-12.49-10.37-2.35.85-2,5.23-2.91,13.7-.72,6.54-2,18.3-7,29-2.22,4.76-5.67,11.91-13.48,17.38a37.23,37.23,0,0,1-17.49,6.42Z"/><path class="cls-1" d="M31.34,49c2-4.72,2.05-6,1.67-6.25s-1.55.6-2.17,1.61c-.89,1.42-.56,2.86-.8,2.89s-1.26-2.16-1.3-5c0-3.8,1.57-6.29.93-6.66-.39-.23-1.32.48-1.84,1.19-.82,1.12-.59,2.23-.89,2.27s-1.37-2-1.39-4.39a9.9,9.9,0,0,1,.8-3.95c1.88-4.54.22-6.62,1.69-11.33,0,0,1.5-4.78,11.91-14.31A16,16,0,0,1,41.7,3.74s.34-.23.7-.44a23.36,23.36,0,0,1,5-1.9,30.19,30.19,0,0,1,13-.57C64.11,1.47,73.51,3.1,77,9.68a20.43,20.43,0,0,1,1.34,3.38c1,3.11.73,4.4,1.28,8.4.33,2.34.81,4.59,1.78,9.09a26,26,0,0,1,.86,5.21c.14,3.5-.66,6.22-1,6.2s0-1.23-.92-2.27c-.51-.6-1.38-1.15-1.72-.92-.54.37,1.11,2.3,1.26,5.48a13.62,13.62,0,0,1-1.23,5.63l-.13.31a19.46,19.46,0,0,0,.13,7.06,10.84,10.84,0,0,0,.73,2.4c.85,1.85,2,2.6,3.13,6.06a80.33,80.33,0,0,1,1.58,8.61c.36,2.3.36,2.53.74,5,1.09,6.91,1.35,7.29,1.73,10.39.63,5.23,1,7.85.25,10.15-.94,3.09-2.41,4-2.85,7.55-.26,2.13.11,3.08.25,5.2.31,4.78-1.22,5.6-1.86,10.89-.89,7.46,1.75,9.19-.24,15-.59,1.7-1,2.07-1.86,4.71-1.89,5.76-1.32,8.15-1,9.16A16.4,16.4,0,0,0,80.79,155c2.43,4.58,1.77,7.12,3.47,11.76,1.43,3.9,2.2,2.93,3.46,6.43,1.56,4.33.34,5.71,1,13.37.51,5.83.76,8.75,2,11.13,1.33,2.59,3.26,4.69,2.61,7.2a5.22,5.22,0,0,1-1.81,2.67c-12.55.66-23.35,1-31.92,1.21-15.25.34-12.69-.05-28.73.17-4.82.06-9.65-.78-14.46-.43-2.56.18-4.86.49-7.4-.78-2.83-1.42-5.58-4.62-5-6.79a9.52,9.52,0,0,0,.86-3,3.09,3.09,0,0,0-.17-1.63,2.3,2.3,0,0,0-2.47-1.23c-1,.32-1.14,1.73-1.42,1.68s-.65-2.27-.15-5c.74-4.09,3.28-9.49,6.11-13.51.38-.55,1.21-1.69.86-2.75a2.7,2.7,0,0,0-2.83-1.61c-1.07.21-1.5,1.29-1.78,1.16s0-2.35,1.07-4.79C5.5,167,6.7,166.53,8,163.15a10.45,10.45,0,0,0,.76-3.42c0-1.91-.49-4.15-1.2-4.21s-1,1.48-1.24,1.42c-.5-.14-.21-7,2.78-14.41a117.71,117.71,0,0,0,4.15-11.43c.33-1.21.14-1.06,2.56-7.25.91-2.32,2.43-6.13,1.69-10.71-.34-2.09-1.18-4.58-1.67-4.52s-.42,3.23-.69,3.25-1.59-3.92-.88-8.49c.61-3.9,2.3-5.88,3.53-12.08.25-1.22.51-2.78.06-3S16.49,89.24,16,90c-1,1.64-1,3-1.18,3s-1.16-4.13-.19-9a32.8,32.8,0,0,1,2-6.2c1.67-4.13,3.41-7,3-7.22s-1.6,1.48-1.89,1.29,1.55-4.28,4.57-9.24c1.42-2.32,2.51-3.95,3.41-5.21,1.32-1.85,2.2-2.8,3.51-4.82C30.21,51.14,30.91,49.87,31.34,49Z"/><path class="cls-2" d="M127.21,110.34c.38-.29,3.13,2.25,13.41,14.55-3.78-3.28-6.83-6-9.13-8a14.31,14.31,0,0,1-3.57-4.47C127.68,112,127,110.53,127.21,110.34Z"/><path class="cls-3" d="M17.33,118.9a98.4,98.4,0,0,0,2.25,10.69c1.44,5.38,3.05,11.47,6.81,18.15,4.32,7.69,7.11,8.73,8.93,15.45a69.68,69.68,0,0,1,1.42,7.52c.46,3.15.63,5.49,1,11.34.22,3.65.46,7.83.71,12.48a27.23,27.23,0,0,0-3.58,6.79,27.56,27.56,0,0,0-1.59,7.6c8.08.23,14.61-.42,22.69-.18a15.17,15.17,0,0,0,.39-7.1c-.46-2.39-1.41-3.83-1.92-7.47a29.54,29.54,0,0,1-.25-3.19c-.43-8.29-.43-13.33-.43-13.33,0-5.15.1-8,.28-13.32.23-6.48.41-8.49,1.71-10.78A14.6,14.6,0,0,1,61.55,148c.12,3.37.27,7.6.42,12.48.23,7,.17,6.14.43,14.18.17,5.43-.14,10.89.42,16.3a22.58,22.58,0,0,1,0,5.81c-.25,1.94-.62,2.66-1,4.68a35.69,35.69,0,0,0-.68,7.27c8.56-.1,15.49-.82,24-.91a24.29,24.29,0,0,0-1.3-6.8,37,37,0,0,0-2.66-5.71c-.92-1.76-1.77-3.19-2.38-4.2-.38-7.08-.37-12.79-.29-16.73.06-2.87.13-4.59.29-10.63.13-5.2.21-9.44.26-12.21"/><path class="cls-2" d="M54.64,62.66c8-6.55,8.28-8,10.23-7.82,1.57.15,3.22,1.28,10.22,15.44,3.47,7,5.22,10.59,5.73,12.89a38.91,38.91,0,0,1-1.09,19.71c-2.08,6.45-4.52,7.5-4.75,13.14-.19,4.84,1.52,6.25.37,9.85-1.29,4-3.94,3.65-7.67,8.76-4.32,5.94-3.57,10.28-6.5,11.06s-6.38-3-7.73-4.49c-5.29-5.87-3.53-10.37-8-19.7-4.14-8.59-6.34-7.41-7.66-13.14-1.23-5.34.34-13,1.82-18.62.8-3,.57-1.66,2.79-9.23,2.18-7.41,2.22-8.08,3.16-9.67C47.17,68.07,48.4,67.79,54.64,62.66Z"/><path class="cls-2" d="M61.55,148A13.64,13.64,0,0,0,58,150.6a13.84,13.84,0,0,0-3.13,4.9c-.38,3.43-.6,6.3-.74,8.36-.67,10.12.12,10.6-.18,22.51a27,27,0,0,0,.46,7.8c.31,1.29.79,2.7,1.53,5.9a21.38,21.38,0,0,1,.63,3.57,14.41,14.41,0,0,1-.63,5.1h5.19c0-.81,0-1.85.09-3.07,0-.26.12-1.37.37-2.9s.36-1.69.74-3.59c.33-1.67.5-2.5.57-3.27a23.45,23.45,0,0,0,0-4.36c-.12-1.74-.24-1.88-.36-3.6-.09-1.19-.09-2.06-.09-3.77,0-2.94,0-4.72,0-6s0-4.13-.1-7.41-.21-3.2-.34-7c0-.91-.08-2.7-.16-6.27-.07-2.61-.09-3.89-.16-5.91C61.64,150.05,61.59,148.82,61.55,148Z"/><path class="cls-2" d="M38.44,194.53a27.63,27.63,0,0,0-2.55,4.3,28.21,28.21,0,0,0-2.37,7.75c-.14,1-.21,1.77-.25,2.34L56,208.74a15.13,15.13,0,0,0,.41-6.78q-1.93-1.14-4.11-2.24A68.88,68.88,0,0,0,38.44,194.53Z"/><path class="cls-2" d="M62.06,200.56a32.17,32.17,0,0,0-.82,5.11c-.08,1.09-.1,2.12-.09,3.07l24-.91a22.31,22.31,0,0,0-.29-2.74,26,26,0,0,0-1.86-6.2,13.38,13.38,0,0,0-1.35-2.7C78.63,192.44,63.42,199.89,62.06,200.56Z"/><path class="cls-4" d="M30.89,49.75a62.93,62.93,0,0,0,29.4,10.9,62,62,0,0,0,19.1-1.09L81,62.3A50.07,50.07,0,0,1,76,63.69c-19.46,4.21-37.17-4.64-46.9-10.8Z"/><circle class="cls-5" cx="64.41" cy="65.62" r="2.76"/><path class="cls-2" d="M54.51,20.77a10.94,10.94,0,0,0-6.27,4.48,9.32,9.32,0,0,0-1.61,6.32c.25,1.66,1.23,2.94,3.16,5.52s2.79,3.71,4.12,4.37c.53.26,1.16.49,7.19.35,4.27-.09,5.15-.23,6.13-.88a7.54,7.54,0,0,0,2.57-3.49,13,13,0,0,0,.9-6.73,9,9,0,0,0-1.19-4.43,10.05,10.05,0,0,0-3.68-3.16c-3.28-2.05-4.66-1.76-6-3.56a10.34,10.34,0,0,1-1.33-3.11c-.69-2.1-.55-2.86-1.42-6.2-.31-1.18-.54-1.9-.79-2.6-.47-1.24-1.36-3.33-1.67-3.25s.06,1.42.44,4.48c.25,2,.46,3.74.5,5.13A19.7,19.7,0,0,1,54.51,20.77Z"/><path class="cls-6" d="M53.63,24.28c-.23.68.69,1.73,2.53,3.79,2.81,3.16,3.61,3.26,4.08,3.22a3.44,3.44,0,0,0,2.24-1.49c.17-.23.55-.79.92-3,.34-2,.51-3,.17-3.51-.71-1-2.51-.81-5.17-.52S54,23.28,53.63,24.28Z"/><path class="cls-7" d="M60.66,33.11a5,5,0,0,1-.08,2.07,4.88,4.88,0,0,1-1.07,2,5.42,5.42,0,0,1-2.06,1.37,7.45,7.45,0,0,1-2.44.61"/><path class="cls-7" d="M65.81,37.91a3.32,3.32,0,0,1-2.33.18,3.67,3.67,0,0,1-1.69-1.22A5.81,5.81,0,0,1,60.62,35"/><path class="cls-1" d="M36.64,3c-1.16-.28-2.46.58-5.55,4.05-3.79,4.25-3.47,4.8-5.85,7.05-2.82,2.66-4.07,2.65-4.35,4.2C20.55,20.19,22.41,20.68,24,25c1,2.58.71,3.46,1.95,5.25.73,1,1.89,2.71,3.6,2.85,2.24.17,4-2.37,5.1-3.9a8.6,8.6,0,0,0,1.8-3.9c.31-2.27-.8-2.85-.9-5.85a18.82,18.82,0,0,1,.6-4.5c.29-1.42.69-2.91,1.5-5.85.75-2.74,1.1-3.88.45-4.95A2.6,2.6,0,0,0,36.64,3Z"/><path class="cls-1" d="M74.27,5.48a5.88,5.88,0,0,0,2.42-1.24C77.4,3.6,77.66,3,78,3s.12,1,.56,2.17a5.39,5.39,0,0,0,1.41,2C81.74,9,81,11,82.74,14.73c1,2.09,1.78,2.66,3.17,5.76.46,1,1.08,2.54.35,3.64-.22.35-1.05,1.36-1.05,1.36h0a7.15,7.15,0,0,0-1.06,4.1c.13,1.09.64,1.59.6,3.11,0,.56-.08,1-.42,1.15s-1.3-.08-1.75-.36c-.77-.49-.74-1-1.75-2.29-.36-.47-.62-.73-.78-.91A16.37,16.37,0,0,1,77,23.72c-1.09-5,1.34-6.46.63-11.1A15,15,0,0,0,74.27,5.48Z"/><path class="cls-8" d="M70.4,18.49a2.87,2.87,0,0,0-2.67-1.93,2.58,2.58,0,0,0-2.47,1.81"/><path class="cls-8" d="M48.72,18.49a2.87,2.87,0,0,0-2.67-1.93,2.58,2.58,0,0,0-2.47,1.81"/><path class="cls-9" d="M59,37.87a8.61,8.61,0,0,1-.07,3.7c-.41,1.65-1.09,2.1-1.19,3.56a4.58,4.58,0,0,0,1.1,3.53c1.67,1.62,5.06,1.32,5.86-.13a3,3,0,0,0,0-2.19c-.29-1-.73-1.14-1.31-2.21a8.44,8.44,0,0,1-.89-2.77,11.52,11.52,0,0,1-.1-3.47l-1.64-1.76Z"/></g></g></svg>